<svg xmlns="http://www.w3.org/2000/svg" viewBox="0 0 1280 220" width="1280" height="220" role="img" aria-labelledby="t d">
  <title id="t">Community · Code Of Conduct — Care, evidence and restraint.</title>
  <desc id="d">Banner: a circle of contributors connected by lines around a sunflower, gently pulsing.</desc>
  <defs>
    <clipPath id="frame"><rect x="1" y="1" width="1278" height="218" rx="18"/></clipPath>
    <style>
      .serif{font-family:Georgia,'Times New Roman',serif}
      .sans{font-family:-apple-system,'Segoe UI',Helvetica,Arial,sans-serif}
      .mono{font-family:ui-monospace,SFMono-Regular,Menlo,Consolas,monospace}
      .lbl{font-family:-apple-system,'Segoe UI',Helvetica,Arial,sans-serif;font-size:14px;letter-spacing:2.5px;font-weight:700}
      .pp{transform-box:fill-box;transform-origin:center;animation:pp 3.6s ease-in-out 1 both}@keyframes pp{0%,100%{transform:scale(1)}50%{transform:scale(1.25)}}
      @media (prefers-reduced-motion: reduce){.pp{animation:none!important}}
    </style>
  </defs>
  <g clip-path="url(#frame)">
    <rect width="1280" height="220" fill="#161B22"/>
<rect width="1280" height="6" fill="#62B487"/>
    <text x="48" y="60" class="lbl" fill="#62B487">COMMUNITY · CODE OF CONDUCT</text>
    <text x="48" y="112" class="serif" font-size="40" fill="#E6EDF3">Care, evidence and restraint.</text>
    <text x="48" y="150" class="sans" font-size="16.5" fill="#B1BAC4">These materials carry rights, sovereignty and sensitivity weight — treat them,</text><text x="48" y="172" class="sans" font-size="16.5" fill="#B1BAC4">and each other, accordingly.</text>
    <g transform="translate(48,202)" class="sans" font-size="12" fill="#9198A1"><circle cx="5" cy="-4" r="4" fill="#62B487"/><text x="16" y="0">Kansas Frontier Matrix</text></g>
    <line x1="776" y1="34" x2="776" y2="186" stroke="#30363D"/>
<line x1="1020" y1="48" x2="1082" y2="110" stroke="#62B487" stroke-opacity=".25"/><line x1="1051" y1="56" x2="1074" y2="141" stroke="#62B487" stroke-opacity=".25"/><line x1="1074" y1="79" x2="1051" y2="164" stroke="#62B487" stroke-opacity=".25"/><line x1="1082" y1="110" x2="1020" y2="172" stroke="#62B487" stroke-opacity=".25"/><line x1="1074" y1="141" x2="989" y2="164" stroke="#62B487" stroke-opacity=".25"/><line x1="1051" y1="164" x2="966" y2="141" stroke="#62B487" stroke-opacity=".25"/><line x1="1020" y1="172" x2="958" y2="110" stroke="#62B487" stroke-opacity=".25"/><line x1="989" y1="164" x2="966" y2="79" stroke="#62B487" stroke-opacity=".25"/><line x1="966" y1="141" x2="989" y2="56" stroke="#62B487" stroke-opacity=".25"/><line x1="958" y1="110" x2="1020" y2="48" stroke="#62B487" stroke-opacity=".25"/><line x1="966" y1="79" x2="1051" y2="56" stroke="#62B487" stroke-opacity=".25"/><line x1="989" y1="56" x2="1074" y2="79" stroke="#62B487" stroke-opacity=".25"/><circle class="pp" style="animation-delay:0s" cx="1020" cy="48" r="9" fill="#62B487"/><circle class="pp" style="animation-delay:-0.3s" cx="1051" cy="56" r="9" fill="#7FA9E3"/><circle class="pp" style="animation-delay:-0.6s" cx="1074" cy="79" r="9" fill="#D2A06A"/><circle class="pp" style="animation-delay:-0.9s" cx="1082" cy="110" r="9" fill="#B1BAC4"/><circle class="pp" style="animation-delay:-1.2s" cx="1074" cy="141" r="9" fill="#62B487"/><circle class="pp" style="animation-delay:-1.5s" cx="1051" cy="164" r="9" fill="#7FA9E3"/><circle class="pp" style="animation-delay:-1.8s" cx="1020" cy="172" r="9" fill="#D2A06A"/><circle class="pp" style="animation-delay:-2.1s" cx="989" cy="164" r="9" fill="#B1BAC4"/><circle class="pp" style="animation-delay:-2.4s" cx="966" cy="141" r="9" fill="#62B487"/><circle class="pp" style="animation-delay:-2.7s" cx="958" cy="110" r="9" fill="#7FA9E3"/><circle class="pp" style="animation-delay:-3s" cx="966" cy="79" r="9" fill="#D2A06A"/><circle class="pp" style="animation-delay:-3.3s" cx="989" cy="56" r="9" fill="#B1BAC4"/><circle cx="1020" cy="110" r="20" fill="#0D1117" stroke="#62B487" stroke-width="2"/>
  </g>
  <rect x="1" y="1" width="1278" height="218" rx="18" fill="none" stroke="#30363D" stroke-width="2"/>
</svg>
