<svg xmlns="http://www.w3.org/2000/svg" viewBox="0 0 1280 220" width="1280" height="220" role="img" aria-labelledby="t d">
  <title id="t">Encyclopedia · Feature Matrix — What it does — and what to verify.</title>
  <desc id="d">Banner: a grid of feature cells softly lighting and dimming.</desc>
  <defs>
    <clipPath id="frame"><rect x="1" y="1" width="1278" height="218" rx="18"/></clipPath>
    <style>
      .serif{font-family:Georgia,'Times New Roman',serif}
      .sans{font-family:-apple-system,'Segoe UI',Helvetica,Arial,sans-serif}
      .mono{font-family:ui-monospace,SFMono-Regular,Menlo,Consolas,monospace}
      .lbl{font-family:-apple-system,'Segoe UI',Helvetica,Arial,sans-serif;font-size:14px;letter-spacing:2.5px;font-weight:700}
      .gc{animation:gc 4s ease-in-out 1 both;opacity:.2}@keyframes gc{0%,100%{opacity:.18}50%{opacity:.85}}
      @media (prefers-reduced-motion: reduce){.gc{animation:none!important;opacity:.5}}
    </style>
  </defs>
  <g clip-path="url(#frame)">
    <rect width="1280" height="220" fill="#161B22"/>
<rect width="1280" height="6" fill="#A8C4EA"/>
    <text x="48" y="60" class="lbl" fill="#A8C4EA">ENCYCLOPEDIA · FEATURE MATRIX</text>
    <text x="48" y="112" class="serif" font-size="40" fill="#E6EDF3">What it does — and what to verify.</text>
    <text x="48" y="150" class="sans" font-size="16.5" fill="#B1BAC4">Every feature family routes to its own guide, its own clocks and its own</text><text x="48" y="172" class="sans" font-size="16.5" fill="#B1BAC4">limits.</text>
    <g transform="translate(48,202)" class="sans" font-size="12" fill="#9198A1"><circle cx="5" cy="-4" r="4" fill="#A8C4EA"/><text x="16" y="0">Kansas Frontier Matrix</text></g>
    <line x1="776" y1="34" x2="776" y2="186" stroke="#30363D"/>
<rect class="gc" style="animation-delay:-0.944s" x="800" y="36" width="26" height="26" rx="5" fill="#62B487"/><rect class="gc" style="animation-delay:-2.89s" x="800" y="67" width="26" height="26" rx="5" fill="#9AAABA"/><rect class="gc" style="animation-delay:-0.616s" x="800" y="98" width="26" height="26" rx="5" fill="#62B487"/><rect class="gc" style="animation-delay:-0.08s" x="800" y="129" width="26" height="26" rx="5" fill="#B1BAC4"/><rect class="gc" style="animation-delay:-3.2s" x="800" y="160" width="26" height="26" rx="5" fill="#62B487"/><rect class="gc" style="animation-delay:-0.888s" x="831" y="36" width="26" height="26" rx="5" fill="#B1BAC4"/><rect class="gc" style="animation-delay:-1.1s" x="831" y="67" width="26" height="26" rx="5" fill="#7FA9E3"/><rect class="gc" style="animation-delay:-3.3s" x="831" y="98" width="26" height="26" rx="5" fill="#B1BAC4"/><rect class="gc" style="animation-delay:-0.856s" x="831" y="129" width="26" height="26" rx="5" fill="#62B487"/><rect class="gc" style="animation-delay:-3.31s" x="831" y="160" width="26" height="26" rx="5" fill="#B1BAC4"/><rect class="gc" style="animation-delay:-3.2s" x="862" y="36" width="26" height="26" rx="5" fill="#7FA9E3"/><rect class="gc" style="animation-delay:-0.656s" x="862" y="67" width="26" height="26" rx="5" fill="#B1BAC4"/><rect class="gc" style="animation-delay:-2.5s" x="862" y="98" width="26" height="26" rx="5" fill="#B1BAC4"/><rect class="gc" style="animation-delay:-0.344s" x="862" y="129" width="26" height="26" rx="5" fill="#B1BAC4"/><rect class="gc" style="animation-delay:-2.69s" x="862" y="160" width="26" height="26" rx="5" fill="#7FA9E3"/><rect class="gc" style="animation-delay:-0.712s" x="893" y="36" width="26" height="26" rx="5" fill="#9AAABA"/><rect class="gc" style="animation-delay:-1.12s" x="893" y="67" width="26" height="26" rx="5" fill="#B1BAC4"/><rect class="gc" style="animation-delay:-0.032s" x="893" y="98" width="26" height="26" rx="5" fill="#B1BAC4"/><rect class="gc" style="animation-delay:-2.29s" x="893" y="129" width="26" height="26" rx="5" fill="#B1BAC4"/><rect class="gc" style="animation-delay:-3.39s" x="893" y="160" width="26" height="26" rx="5" fill="#7FA9E3"/><rect class="gc" style="animation-delay:-1.66s" x="924" y="36" width="26" height="26" rx="5" fill="#B1BAC4"/><rect class="gc" style="animation-delay:-1.73s" x="924" y="67" width="26" height="26" rx="5" fill="#7FA9E3"/><rect class="gc" style="animation-delay:-0.936s" x="924" y="98" width="26" height="26" rx="5" fill="#B1BAC4"/><rect class="gc" style="animation-delay:-3.25s" x="924" y="129" width="26" height="26" rx="5" fill="#62B487"/><rect class="gc" style="animation-delay:-0.328s" x="924" y="160" width="26" height="26" rx="5" fill="#9AAABA"/><rect class="gc" style="animation-delay:-2.5s" x="955" y="36" width="26" height="26" rx="5" fill="#B1BAC4"/><rect class="gc" style="animation-delay:-2.07s" x="955" y="67" width="26" height="26" rx="5" fill="#9AAABA"/><rect class="gc" style="animation-delay:-2.8s" x="955" y="98" width="26" height="26" rx="5" fill="#7FA9E3"/><rect class="gc" style="animation-delay:-3.99s" x="955" y="129" width="26" height="26" rx="5" fill="#7FA9E3"/><rect class="gc" style="animation-delay:-0.264s" x="955" y="160" width="26" height="26" rx="5" fill="#7FA9E3"/><rect class="gc" style="animation-delay:-2.54s" x="986" y="36" width="26" height="26" rx="5" fill="#9AAABA"/><rect class="gc" style="animation-delay:-1.1s" x="986" y="67" width="26" height="26" rx="5" fill="#B1BAC4"/><rect class="gc" style="animation-delay:-1.74s" x="986" y="98" width="26" height="26" rx="5" fill="#B1BAC4"/><rect class="gc" style="animation-delay:-2.54s" x="986" y="129" width="26" height="26" rx="5" fill="#7FA9E3"/><rect class="gc" style="animation-delay:-3.62s" x="986" y="160" width="26" height="26" rx="5" fill="#62B487"/><rect class="gc" style="animation-delay:-3.36s" x="1017" y="36" width="26" height="26" rx="5" fill="#7FA9E3"/><rect class="gc" style="animation-delay:-1.11s" x="1017" y="67" width="26" height="26" rx="5" fill="#7FA9E3"/><rect class="gc" style="animation-delay:-0.488s" x="1017" y="98" width="26" height="26" rx="5" fill="#7FA9E3"/><rect class="gc" style="animation-delay:-1.16s" x="1017" y="129" width="26" height="26" rx="5" fill="#62B487"/><rect class="gc" style="animation-delay:-0.168s" x="1017" y="160" width="26" height="26" rx="5" fill="#62B487"/><rect class="gc" style="animation-delay:-3.58s" x="1048" y="36" width="26" height="26" rx="5" fill="#B1BAC4"/><rect class="gc" style="animation-delay:-2.94s" x="1048" y="67" width="26" height="26" rx="5" fill="#B1BAC4"/><rect class="gc" style="animation-delay:-0.072s" x="1048" y="98" width="26" height="26" rx="5" fill="#B1BAC4"/><rect class="gc" style="animation-delay:-1.29s" x="1048" y="129" width="26" height="26" rx="5" fill="#7FA9E3"/><rect class="gc" style="animation-delay:-3.1s" x="1048" y="160" width="26" height="26" rx="5" fill="#9AAABA"/><rect class="gc" style="animation-delay:-3.45s" x="1079" y="36" width="26" height="26" rx="5" fill="#62B487"/><rect class="gc" style="animation-delay:-1.18s" x="1079" y="67" width="26" height="26" rx="5" fill="#7FA9E3"/><rect class="gc" style="animation-delay:-3.58s" x="1079" y="98" width="26" height="26" rx="5" fill="#B1BAC4"/><rect class="gc" style="animation-delay:-0.544s" x="1079" y="129" width="26" height="26" rx="5" fill="#9AAABA"/><rect class="gc" style="animation-delay:-2.39s" x="1079" y="160" width="26" height="26" rx="5" fill="#7FA9E3"/><rect class="gc" style="animation-delay:-1.33s" x="1110" y="36" width="26" height="26" rx="5" fill="#62B487"/><rect class="gc" style="animation-delay:-1.46s" x="1110" y="67" width="26" height="26" rx="5" fill="#9AAABA"/><rect class="gc" style="animation-delay:-0.68s" x="1110" y="98" width="26" height="26" rx="5" fill="#B1BAC4"/><rect class="gc" style="animation-delay:-3.99s" x="1110" y="129" width="26" height="26" rx="5" fill="#62B487"/><rect class="gc" style="animation-delay:-1.76s" x="1110" y="160" width="26" height="26" rx="5" fill="#7FA9E3"/><rect class="gc" style="animation-delay:-1.7s" x="1141" y="36" width="26" height="26" rx="5" fill="#7FA9E3"/><rect class="gc" style="animation-delay:-0.456s" x="1141" y="67" width="26" height="26" rx="5" fill="#62B487"/><rect class="gc" style="animation-delay:-0.224s" x="1141" y="98" width="26" height="26" rx="5" fill="#7FA9E3"/><rect class="gc" style="animation-delay:-2.38s" x="1141" y="129" width="26" height="26" rx="5" fill="#7FA9E3"/><rect class="gc" style="animation-delay:-2.42s" x="1141" y="160" width="26" height="26" rx="5" fill="#9AAABA"/><rect class="gc" style="animation-delay:-2.33s" x="1172" y="36" width="26" height="26" rx="5" fill="#B1BAC4"/><rect class="gc" style="animation-delay:-3.99s" x="1172" y="67" width="26" height="26" rx="5" fill="#62B487"/><rect class="gc" style="animation-delay:-3.34s" x="1172" y="98" width="26" height="26" rx="5" fill="#B1BAC4"/><rect class="gc" style="animation-delay:-3.1s" x="1172" y="129" width="26" height="26" rx="5" fill="#9AAABA"/><rect class="gc" style="animation-delay:-2.61s" x="1172" y="160" width="26" height="26" rx="5" fill="#7FA9E3"/><rect class="gc" style="animation-delay:-1.91s" x="1203" y="36" width="26" height="26" rx="5" fill="#7FA9E3"/><rect class="gc" style="animation-delay:-1.75s" x="1203" y="67" width="26" height="26" rx="5" fill="#9AAABA"/><rect class="gc" style="animation-delay:-0.144s" x="1203" y="98" width="26" height="26" rx="5" fill="#9AAABA"/><rect class="gc" style="animation-delay:-1.78s" x="1203" y="129" width="26" height="26" rx="5" fill="#9AAABA"/><rect class="gc" style="animation-delay:-3.33s" x="1203" y="160" width="26" height="26" rx="5" fill="#9AAABA"/>
  </g>
  <rect x="1" y="1" width="1278" height="218" rx="18" fill="none" stroke="#30363D" stroke-width="2"/>
</svg>
