<svg xmlns="http://www.w3.org/2000/svg" viewBox="0 0 1280 640" width="1280" height="640" role="img" aria-labelledby="t d">
  <title id="t">One place, many layers</title>
  <desc id="d">Illustration: six stylized Kansas map layers stacked in perspective — places and boundaries, water, geology and soils, land cover and crops, live observations, and evidence and limits — remain separated with visible labels, beside a shared clock.</desc>
  <defs>
    <clipPath id="frame"><rect x="1" y="1" width="1278" height="638" rx="18"/></clipPath>
    <style>
      .serif{font-family:Georgia,'Times New Roman',serif}
      .sans{font-family:-apple-system,'Segoe UI',Helvetica,Arial,sans-serif}
      .mono{font-family:ui-monospace,SFMono-Regular,Menlo,Consolas,monospace}
      .lbl{font-family:-apple-system,'Segoe UI',Helvetica,Arial,sans-serif;font-size:14px;letter-spacing:2.5px;font-weight:700}
      .p0{transform:translateY(85px)}.p1{transform:translateY(41px)}.p2{transform:translateY(-3px)}.p3{transform:translateY(-47px)}.p4{transform:translateY(-91px)}.p5{transform:translateY(-135px)}.lab{opacity:1}
      .hand{transform-box:fill-box;transform-origin:50% 100%;animation:hand 4s linear 1 both}@keyframes hand{to{transform:rotate(360deg)}}
      @media (prefers-reduced-motion: reduce){.hand{animation:none!important}}
    </style>
  </defs>
  <g clip-path="url(#frame)">
    <rect width="1280" height="640" fill="#161B22"/>
<defs><clipPath id="kc"><path d="M0,0 H543 L551,10 548,24 558,36 570,48 566,62 580,74 590,84 600,93 V310 H0 Z"/></clipPath></defs>
    <text x="40" y="48" class="lbl" fill="#D2A06A">ONE PLACE, MANY LAYERS</text><text x="40" y="76" class="sans" font-size="17" fill="#A8C4EA">Every layer of Kansas on one map and one clock — each keeping its own receipts.</text>
    <g transform="translate(430,310)"><g class="pl p0"><g transform="matrix(0.5580,0.1984,-0.4464,0.2604,0,0)"><path d="M0,0 H543 L551,10 548,24 558,36 570,48 566,62 580,74 590,84 600,93 V310 H0 Z" fill="#1E232B" fill-opacity="1" stroke="#D2A06A" stroke-width="2" vector-effect="non-scaling-stroke"/><g clip-path="url(#kc)"><path d="M30,0 V310 M60,0 V310 M90,0 V310 M120,0 V310 M150,0 V310 M180,0 V310 M210,0 V310 M240,0 V310 M270,0 V310 M300,0 V310 M330,0 V310 M360,0 V310 M390,0 V310 M420,0 V310 M450,0 V310 M480,0 V310 M510,0 V310 M540,0 V310 M570,0 V310 M0,31 H600 M0,62 H600 M0,93 H600 M0,124 H600 M0,155 H600 M0,186 H600 M0,217 H600 M0,248 H600 M0,279 H600 " stroke="#D2A06A" stroke-opacity="0.4" stroke-width="1.61" fill="none"/></g></g></g></g>
    <g class="lab l0"><line x1="730" y1="457" x2="900" y2="457" stroke="#9AAABA" stroke-width="1.4" stroke-dasharray="3 4"/><circle cx="900" cy="457" r="4" fill="#9AAABA"/><text x="916" y="454" class="sans" font-size="17" font-weight="700" fill="#E6EDF3">Places &amp; boundaries</text><text x="916" y="474" class="sans" font-size="13" fill="#9198A1">counties, roads, rail, survey grid</text></g>
    <g transform="translate(430,294)"><g class="pl p1"><g transform="matrix(0.5580,0.1984,-0.4464,0.2604,0,0)"><path d="M0,0 H543 L551,10 548,24 558,36 570,48 566,62 580,74 590,84 600,93 V310 H0 Z" fill="#1B2838" fill-opacity="1" stroke="#7FA9E3" stroke-width="2" vector-effect="non-scaling-stroke"/><polyline points="0,201.5 52.3,206.7 84.6,209.8 124.8,222.2 165.1,232.5 197.3,222.2 221.5,211.8 245.6,186 264.2,169.5 289.9,175.7 310.1,186 334.2,200.5 358.4,217 380.1,238.7 390.6,268.7 403.5,310" fill="none" stroke="#7FA9E3" stroke-width="3.23" stroke-linecap="round" stroke-linejoin="round" stroke-opacity="1"/><polyline points="0,113.7 44.3,115.7 84.6,118.8 140.9,120.9 205.4,118.8 253.7,126.1 277.9,129.2 318.1,126.1 357.6,119.9 390.6,108.5 420.4,100.2 441.3,84.7 471.1,90.9 513,98.2 549.3,106.4 575.8,96.1 598.4,92" fill="none" stroke="#7FA9E3" stroke-width="3.23" stroke-linecap="round" stroke-linejoin="round" stroke-opacity="1"/><polyline points="326.2,0 346.3,20.7 358.4,41.3 374.5,56.8 390.6,72.3 406.7,87.8 420.4,100.2" fill="none" stroke="#7FA9E3" stroke-width="2.10" stroke-linecap="round" stroke-linejoin="round" stroke-opacity="1"/><polyline points="414.8,113.7 447,144.7 472.8,165.3 503.4,196.3 527.5,222.2 543.6,248 567.8,284.2 579.9,310" fill="none" stroke="#7FA9E3" stroke-width="2.10" stroke-linecap="round" stroke-linejoin="round" stroke-opacity="1"/><polyline points="124.8,56.8 181.2,56.8 245.6,62 302,72.3 342.3,93 357.6,119.9" fill="none" stroke="#7FA9E3" stroke-width="2.10" stroke-linecap="round" stroke-linejoin="round" stroke-opacity="1"/></g></g></g>
    <g class="lab l1"><line x1="730" y1="397" x2="900" y2="397" stroke="#7FA9E3" stroke-width="1.4" stroke-dasharray="3 4"/><circle cx="900" cy="397" r="4" fill="#7FA9E3"/><text x="916" y="394" class="sans" font-size="17" font-weight="700" fill="#E6EDF3">Water</text><text x="916" y="414" class="sans" font-size="13" fill="#9198A1">rivers, watersheds, aquifers</text></g>
    <g transform="translate(430,278)"><g class="pl p2"><g transform="matrix(0.5580,0.1984,-0.4464,0.2604,0,0)"><path d="M0,0 H543 L551,10 548,24 558,36 570,48 566,62 580,74 590,84 600,93 V310 H0 Z" fill="#2B2519" fill-opacity="1" stroke="#D2A06A" stroke-width="2" vector-effect="non-scaling-stroke"/><g clip-path="url(#kc)"><path d="M0,0 C150,-30 300,40 600,-10 V70 C300,110 150,40 0,70 Z" fill="#5E4F33" fill-opacity=".75"/><path d="M0,70 C150,40 300,110 600,60 V140 C300,180 150,110 0,140 Z" fill="#7A5E3A" fill-opacity=".75"/><path d="M0,150 C150,120 300,190 600,140 V220 C300,260 150,190 0,220 Z" fill="#6A4E33" fill-opacity=".75"/><path d="M0,230 C150,200 300,270 600,220 V300 C300,340 150,270 0,300 Z" fill="#9AAABA" fill-opacity=".75"/></g></g></g></g>
    <g class="lab l2"><line x1="730" y1="337" x2="900" y2="337" stroke="#D2A06A" stroke-width="1.4" stroke-dasharray="3 4"/><circle cx="900" cy="337" r="4" fill="#D2A06A"/><text x="916" y="334" class="sans" font-size="17" font-weight="700" fill="#E6EDF3">Geology &amp; soils</text><text x="916" y="354" class="sans" font-size="13" fill="#9198A1">KGS geology, soil horizons</text></g>
    <g transform="translate(430,262)"><g class="pl p3"><g transform="matrix(0.5580,0.1984,-0.4464,0.2604,0,0)"><path d="M0,0 H543 L551,10 548,24 558,36 570,48 566,62 580,74 590,84 600,93 V310 H0 Z" fill="#1C2A21" fill-opacity="1" stroke="#62B487" stroke-width="2" vector-effect="non-scaling-stroke"/><g clip-path="url(#kc)"><rect x="0" y="0" width="30" height="31" fill="#3E3826"/><rect x="0" y="31" width="30" height="31" fill="#1C2A21"/><rect x="0" y="62" width="30" height="31" fill="#1C2A21"/><rect x="0" y="93" width="30" height="31" fill="#3E3826"/><rect x="0" y="124" width="30" height="31" fill="#4A3F28"/><rect x="0" y="155" width="30" height="31" fill="#1C2A21"/><rect x="0" y="186" width="30" height="31" fill="#3F6A47"/><rect x="0" y="217" width="30" height="31" fill="#1C2A21"/><rect x="0" y="248" width="30" height="31" fill="#2E4A30"/><rect x="0" y="279" width="30" height="31" fill="#1C2A21"/><rect x="30" y="0" width="30" height="31" fill="#2E4A30"/><rect x="30" y="31" width="30" height="31" fill="#3F6A47"/><rect x="30" y="62" width="30" height="31" fill="#4A3F28"/><rect x="30" y="93" width="30" height="31" fill="#1C2A21"/><rect x="30" y="124" width="30" height="31" fill="#3E3826"/><rect x="30" y="155" width="30" height="31" fill="#3E3826"/><rect x="30" y="186" width="30" height="31" fill="#3F6A47"/><rect x="30" y="217" width="30" height="31" fill="#1C2A21"/><rect x="30" y="248" width="30" height="31" fill="#1C2A21"/><rect x="30" y="279" width="30" height="31" fill="#3F6A47"/><rect x="60" y="0" width="30" height="31" fill="#3F6A47"/><rect x="60" y="31" width="30" height="31" fill="#3E3826"/><rect x="60" y="62" width="30" height="31" fill="#3E3826"/><rect x="60" y="93" width="30" height="31" fill="#3E3826"/><rect x="60" y="124" width="30" height="31" fill="#1C2A21"/><rect x="60" y="155" width="30" height="31" fill="#3F6A47"/><rect x="60" y="186" width="30" height="31" fill="#2E4A30"/><rect x="60" y="217" width="30" height="31" fill="#2E4A30"/><rect x="60" y="248" width="30" height="31" fill="#3E3826"/><rect x="60" y="279" width="30" height="31" fill="#1C2A21"/><rect x="90" y="0" width="30" height="31" fill="#2E4A30"/><rect x="90" y="31" width="30" height="31" fill="#4A3F28"/><rect x="90" y="62" width="30" height="31" fill="#2E4A30"/><rect x="90" y="93" width="30" height="31" fill="#4A3F28"/><rect x="90" y="124" width="30" height="31" fill="#3F6A47"/><rect x="90" y="155" width="30" height="31" fill="#1C2A21"/><rect x="90" y="186" width="30" height="31" fill="#3F6A47"/><rect x="90" y="217" width="30" height="31" fill="#3F6A47"/><rect x="90" y="248" width="30" height="31" fill="#3F6A47"/><rect x="90" y="279" width="30" height="31" fill="#1C2A21"/><rect x="120" y="0" width="30" height="31" fill="#3F6A47"/><rect x="120" y="31" width="30" height="31" fill="#3E3826"/><rect x="120" y="62" width="30" height="31" fill="#4A3F28"/><rect x="120" y="93" width="30" height="31" fill="#2E4A30"/><rect x="120" y="124" width="30" height="31" fill="#2E4A30"/><rect x="120" y="155" width="30" height="31" fill="#3E3826"/><rect x="120" y="186" width="30" height="31" fill="#3F6A47"/><rect x="120" y="217" width="30" height="31" fill="#3E3826"/><rect x="120" y="248" width="30" height="31" fill="#4A3F28"/><rect x="120" y="279" width="30" height="31" fill="#3F6A47"/><rect x="150" y="0" width="30" height="31" fill="#4A3F28"/><rect x="150" y="31" width="30" height="31" fill="#3F6A47"/><rect x="150" y="62" width="30" height="31" fill="#1C2A21"/><rect x="150" y="93" width="30" height="31" fill="#3F6A47"/><rect x="150" y="124" width="30" height="31" fill="#1C2A21"/><rect x="150" y="155" width="30" height="31" fill="#4A3F28"/><rect x="150" y="186" width="30" height="31" fill="#1C2A21"/><rect x="150" y="217" width="30" height="31" fill="#1C2A21"/><rect x="150" y="248" width="30" height="31" fill="#3F6A47"/><rect x="150" y="279" width="30" height="31" fill="#1C2A21"/><rect x="180" y="0" width="30" height="31" fill="#3E3826"/><rect x="180" y="31" width="30" height="31" fill="#4A3F28"/><rect x="180" y="62" width="30" height="31" fill="#2E4A30"/><rect x="180" y="93" width="30" height="31" fill="#4A3F28"/><rect x="180" y="124" width="30" height="31" fill="#1C2A21"/><rect x="180" y="155" width="30" height="31" fill="#3E3826"/><rect x="180" y="186" width="30" height="31" fill="#4A3F28"/><rect x="180" y="217" width="30" height="31" fill="#1C2A21"/><rect x="180" y="248" width="30" height="31" fill="#1C2A21"/><rect x="180" y="279" width="30" height="31" fill="#1C2A21"/><rect x="210" y="0" width="30" height="31" fill="#2E4A30"/><rect x="210" y="31" width="30" height="31" fill="#3E3826"/><rect x="210" y="62" width="30" height="31" fill="#1C2A21"/><rect x="210" y="93" width="30" height="31" fill="#4A3F28"/><rect x="210" y="124" width="30" height="31" fill="#4A3F28"/><rect x="210" y="155" width="30" height="31" fill="#2E4A30"/><rect x="210" y="186" width="30" height="31" fill="#2E4A30"/><rect x="210" y="217" width="30" height="31" fill="#3F6A47"/><rect x="210" y="248" width="30" height="31" fill="#3F6A47"/><rect x="210" y="279" width="30" height="31" fill="#2E4A30"/><rect x="240" y="0" width="30" height="31" fill="#4A3F28"/><rect x="240" y="31" width="30" height="31" fill="#2E4A30"/><rect x="240" y="62" width="30" height="31" fill="#3F6A47"/><rect x="240" y="93" width="30" height="31" fill="#3E3826"/><rect x="240" y="124" width="30" height="31" fill="#2E4A30"/><rect x="240" y="155" width="30" height="31" fill="#4A3F28"/><rect x="240" y="186" width="30" height="31" fill="#3F6A47"/><rect x="240" y="217" width="30" height="31" fill="#3F6A47"/><rect x="240" y="248" width="30" height="31" fill="#2E4A30"/><rect x="240" y="279" width="30" height="31" fill="#2E4A30"/><rect x="270" y="0" width="30" height="31" fill="#1C2A21"/><rect x="270" y="31" width="30" height="31" fill="#1C2A21"/><rect x="270" y="62" width="30" height="31" fill="#2E4A30"/><rect x="270" y="93" width="30" height="31" fill="#3F6A47"/><rect x="270" y="124" width="30" height="31" fill="#1C2A21"/><rect x="270" y="155" width="30" height="31" fill="#4A3F28"/><rect x="270" y="186" width="30" height="31" fill="#1C2A21"/><rect x="270" y="217" width="30" height="31" fill="#4A3F28"/><rect x="270" y="248" width="30" height="31" fill="#1C2A21"/><rect x="270" y="279" width="30" height="31" fill="#3E3826"/><rect x="300" y="0" width="30" height="31" fill="#2E4A30"/><rect x="300" y="31" width="30" height="31" fill="#4A3F28"/><rect x="300" y="62" width="30" height="31" fill="#2E4A30"/><rect x="300" y="93" width="30" height="31" fill="#2E4A30"/><rect x="300" y="124" width="30" height="31" fill="#2E4A30"/><rect x="300" y="155" width="30" height="31" fill="#1C2A21"/><rect x="300" y="186" width="30" height="31" fill="#1C2A21"/><rect x="300" y="217" width="30" height="31" fill="#2E4A30"/><rect x="300" y="248" width="30" height="31" fill="#3E3826"/><rect x="300" y="279" width="30" height="31" fill="#3F6A47"/><rect x="330" y="0" width="30" height="31" fill="#4A3F28"/><rect x="330" y="31" width="30" height="31" fill="#1C2A21"/><rect x="330" y="62" width="30" height="31" fill="#4A3F28"/><rect x="330" y="93" width="30" height="31" fill="#3E3826"/><rect x="330" y="124" width="30" height="31" fill="#2E4A30"/><rect x="330" y="155" width="30" height="31" fill="#4A3F28"/><rect x="330" y="186" width="30" height="31" fill="#4A3F28"/><rect x="330" y="217" width="30" height="31" fill="#4A3F28"/><rect x="330" y="248" width="30" height="31" fill="#3E3826"/><rect x="330" y="279" width="30" height="31" fill="#3F6A47"/><rect x="360" y="0" width="30" height="31" fill="#3F6A47"/><rect x="360" y="31" width="30" height="31" fill="#3F6A47"/><rect x="360" y="62" width="30" height="31" fill="#1C2A21"/><rect x="360" y="93" width="30" height="31" fill="#3F6A47"/><rect x="360" y="124" width="30" height="31" fill="#1C2A21"/><rect x="360" y="155" width="30" height="31" fill="#1C2A21"/><rect x="360" y="186" width="30" height="31" fill="#2E4A30"/><rect x="360" y="217" width="30" height="31" fill="#1C2A21"/><rect x="360" y="248" width="30" height="31" fill="#1C2A21"/><rect x="360" y="279" width="30" height="31" fill="#4A3F28"/><rect x="390" y="0" width="30" height="31" fill="#3F6A47"/><rect x="390" y="31" width="30" height="31" fill="#3E3826"/><rect x="390" y="62" width="30" height="31" fill="#4A3F28"/><rect x="390" y="93" width="30" height="31" fill="#3F6A47"/><rect x="390" y="124" width="30" height="31" fill="#4A3F28"/><rect x="390" y="155" width="30" height="31" fill="#1C2A21"/><rect x="390" y="186" width="30" height="31" fill="#4A3F28"/><rect x="390" y="217" width="30" height="31" fill="#1C2A21"/><rect x="390" y="248" width="30" height="31" fill="#4A3F28"/><rect x="390" y="279" width="30" height="31" fill="#2E4A30"/><rect x="420" y="0" width="30" height="31" fill="#3F6A47"/><rect x="420" y="31" width="30" height="31" fill="#1C2A21"/><rect x="420" y="62" width="30" height="31" fill="#4A3F28"/><rect x="420" y="93" width="30" height="31" fill="#2E4A30"/><rect x="420" y="124" width="30" height="31" fill="#3F6A47"/><rect x="420" y="155" width="30" height="31" fill="#1C2A21"/><rect x="420" y="186" width="30" height="31" fill="#1C2A21"/><rect x="420" y="217" width="30" height="31" fill="#3E3826"/><rect x="420" y="248" width="30" height="31" fill="#2E4A30"/><rect x="420" y="279" width="30" height="31" fill="#4A3F28"/><rect x="450" y="0" width="30" height="31" fill="#3F6A47"/><rect x="450" y="31" width="30" height="31" fill="#4A3F28"/><rect x="450" y="62" width="30" height="31" fill="#4A3F28"/><rect x="450" y="93" width="30" height="31" fill="#1C2A21"/><rect x="450" y="124" width="30" height="31" fill="#4A3F28"/><rect x="450" y="155" width="30" height="31" fill="#3F6A47"/><rect x="450" y="186" width="30" height="31" fill="#2E4A30"/><rect x="450" y="217" width="30" height="31" fill="#1C2A21"/><rect x="450" y="248" width="30" height="31" fill="#2E4A30"/><rect x="450" y="279" width="30" height="31" fill="#2E4A30"/><rect x="480" y="0" width="30" height="31" fill="#4A3F28"/><rect x="480" y="31" width="30" height="31" fill="#4A3F28"/><rect x="480" y="62" width="30" height="31" fill="#3F6A47"/><rect x="480" y="93" width="30" height="31" fill="#4A3F28"/><rect x="480" y="124" width="30" height="31" fill="#1C2A21"/><rect x="480" y="155" width="30" height="31" fill="#1C2A21"/><rect x="480" y="186" width="30" height="31" fill="#4A3F28"/><rect x="480" y="217" width="30" height="31" fill="#3E3826"/><rect x="480" y="248" width="30" height="31" fill="#4A3F28"/><rect x="480" y="279" width="30" height="31" fill="#3E3826"/><rect x="510" y="0" width="30" height="31" fill="#4A3F28"/><rect x="510" y="31" width="30" height="31" fill="#4A3F28"/><rect x="510" y="62" width="30" height="31" fill="#1C2A21"/><rect x="510" y="93" width="30" height="31" fill="#4A3F28"/><rect x="510" y="124" width="30" height="31" fill="#4A3F28"/><rect x="510" y="155" width="30" height="31" fill="#3F6A47"/><rect x="510" y="186" width="30" height="31" fill="#2E4A30"/><rect x="510" y="217" width="30" height="31" fill="#2E4A30"/><rect x="510" y="248" width="30" height="31" fill="#1C2A21"/><rect x="510" y="279" width="30" height="31" fill="#3E3826"/><rect x="540" y="0" width="30" height="31" fill="#4A3F28"/><rect x="540" y="31" width="30" height="31" fill="#1C2A21"/><rect x="540" y="62" width="30" height="31" fill="#3E3826"/><rect x="540" y="93" width="30" height="31" fill="#4A3F28"/><rect x="540" y="124" width="30" height="31" fill="#3E3826"/><rect x="540" y="155" width="30" height="31" fill="#4A3F28"/><rect x="540" y="186" width="30" height="31" fill="#3E3826"/><rect x="540" y="217" width="30" height="31" fill="#3F6A47"/><rect x="540" y="248" width="30" height="31" fill="#2E4A30"/><rect x="540" y="279" width="30" height="31" fill="#2E4A30"/><rect x="570" y="0" width="30" height="31" fill="#1C2A21"/><rect x="570" y="31" width="30" height="31" fill="#4A3F28"/><rect x="570" y="62" width="30" height="31" fill="#4A3F28"/><rect x="570" y="93" width="30" height="31" fill="#3E3826"/><rect x="570" y="124" width="30" height="31" fill="#3F6A47"/><rect x="570" y="155" width="30" height="31" fill="#3E3826"/><rect x="570" y="186" width="30" height="31" fill="#2E4A30"/><rect x="570" y="217" width="30" height="31" fill="#4A3F28"/><rect x="570" y="248" width="30" height="31" fill="#3E3826"/><rect x="570" y="279" width="30" height="31" fill="#1C2A21"/></g></g></g></g>
    <g class="lab l3"><line x1="730" y1="277" x2="900" y2="277" stroke="#62B487" stroke-width="1.4" stroke-dasharray="3 4"/><circle cx="900" cy="277" r="4" fill="#62B487"/><text x="916" y="274" class="sans" font-size="17" font-weight="700" fill="#E6EDF3">Land cover &amp; crops</text><text x="916" y="294" class="sans" font-size="13" fill="#9198A1">annual land cover, CDL</text></g>
    <g transform="translate(430,246)"><g class="pl p4"><g transform="matrix(0.5580,0.1984,-0.4464,0.2604,0,0)"><path d="M0,0 H543 L551,10 548,24 558,36 570,48 566,62 580,74 590,84 600,93 V310 H0 Z" fill="#16263A" fill-opacity="0.85" stroke="#7FA9E3" stroke-width="2" vector-effect="non-scaling-stroke"/><g clip-path="url(#kc)"><circle cx="380.1" cy="238.7" r="7" fill="#7FA9E3" stroke="#0D1117" stroke-width="2" vector-effect="non-scaling-stroke"/><circle cx="513" cy="98.2" r="7" fill="#7FA9E3" stroke="#0D1117" stroke-width="2" vector-effect="non-scaling-stroke"/><circle cx="163.5" cy="232.5" r="7" fill="#7FA9E3" stroke="#0D1117" stroke-width="2" vector-effect="non-scaling-stroke"/><circle cx="357.6" cy="119.9" r="7" fill="#7FA9E3" stroke="#0D1117" stroke-width="2" vector-effect="non-scaling-stroke"/><circle cx="219.1" cy="115.7" r="7" fill="#7FA9E3" stroke="#0D1117" stroke-width="2" vector-effect="non-scaling-stroke"/><circle cx="441.3" cy="84.7" r="7" fill="#7FA9E3" stroke="#0D1117" stroke-width="2" vector-effect="non-scaling-stroke"/><circle cx="95" cy="209.8" r="7" fill="#7FA9E3" stroke="#0D1117" stroke-width="2" vector-effect="non-scaling-stroke"/><circle cx="472.8" cy="165.3" r="7" fill="#7FA9E3" stroke="#0D1117" stroke-width="2" vector-effect="non-scaling-stroke"/><circle cx="549.3" cy="106.4" r="7" fill="#7FA9E3" stroke="#0D1117" stroke-width="2" vector-effect="non-scaling-stroke"/><circle cx="331.8" cy="200.5" r="7" fill="#7FA9E3" stroke="#0D1117" stroke-width="2" vector-effect="non-scaling-stroke"/><circle cx="80.5" cy="62" r="7" fill="#7FA9E3" stroke="#0D1117" stroke-width="2" vector-effect="non-scaling-stroke"/><circle cx="591.9" cy="267.6" r="7" fill="#7FA9E3" stroke="#0D1117" stroke-width="2" vector-effect="non-scaling-stroke"/><circle cx="265" cy="169.5" r="7" fill="#7FA9E3" stroke="#0D1117" stroke-width="2" vector-effect="non-scaling-stroke"/><ellipse cx="170" cy="150" rx="70" ry="40" fill="#4E8A63" fill-opacity=".45"/><ellipse cx="185" cy="142" rx="30" ry="18" fill="#62B487" fill-opacity=".55"/></g></g></g></g>
    <g class="lab l4"><line x1="730" y1="217" x2="900" y2="217" stroke="#7FA9E3" stroke-width="1.4" stroke-dasharray="3 4"/><circle cx="900" cy="217" r="4" fill="#7FA9E3"/><text x="916" y="214" class="sans" font-size="17" font-weight="700" fill="#E6EDF3">Live observations</text><text x="916" y="234" class="sans" font-size="13" fill="#9198A1">gauges, radar, quakes, smoke</text></g>
    <g transform="translate(430,230)"><g class="pl p5"><g transform="matrix(0.5580,0.1984,-0.4464,0.2604,0,0)"><path d="M0,0 H543 L551,10 548,24 558,36 570,48 566,62 580,74 590,84 600,93 V310 H0 Z" fill="#3A1E20" fill-opacity="0.85" stroke="#E27B7B" stroke-width="2" vector-effect="non-scaling-stroke"/><g clip-path="url(#kc)"><g><circle cx="380.1" cy="238.7" r="11" fill="#0D1117" stroke="#E27B7B" stroke-width="2" vector-effect="non-scaling-stroke"/><path d="M375.1,238.7 l4,4 l7,-8" fill="none" stroke="#E27B7B" stroke-width="2" vector-effect="non-scaling-stroke"/></g><g><circle cx="513" cy="98.2" r="11" fill="#0D1117" stroke="#E27B7B" stroke-width="2" vector-effect="non-scaling-stroke"/><path d="M508,98.2 l4,4 l7,-8" fill="none" stroke="#E27B7B" stroke-width="2" vector-effect="non-scaling-stroke"/></g><g><circle cx="219.1" cy="115.7" r="11" fill="#0D1117" stroke="#E27B7B" stroke-width="2" vector-effect="non-scaling-stroke"/><path d="M214.1,115.7 l4,4 l7,-8" fill="none" stroke="#E27B7B" stroke-width="2" vector-effect="non-scaling-stroke"/></g><g><circle cx="163.5" cy="232.5" r="11" fill="#0D1117" stroke="#E27B7B" stroke-width="2" vector-effect="non-scaling-stroke"/><path d="M158.5,232.5 l4,4 l7,-8" fill="none" stroke="#E27B7B" stroke-width="2" vector-effect="non-scaling-stroke"/></g><g><circle cx="357.6" cy="119.9" r="11" fill="#0D1117" stroke="#E27B7B" stroke-width="2" vector-effect="non-scaling-stroke"/><path d="M352.6,119.9 l4,4 l7,-8" fill="none" stroke="#E27B7B" stroke-width="2" vector-effect="non-scaling-stroke"/></g></g></g></g></g>
    <g class="lab l5"><line x1="730" y1="157" x2="900" y2="157" stroke="#E27B7B" stroke-width="1.4" stroke-dasharray="3 4"/><circle cx="900" cy="157" r="4" fill="#E27B7B"/><text x="916" y="154" class="sans" font-size="17" font-weight="700" fill="#E6EDF3">Evidence &amp; limits</text><text x="916" y="174" class="sans" font-size="13" fill="#9198A1">source, clocks, role, withheld detail</text></g>
    <g transform="translate(40,500)"><circle cx="50" cy="50" r="46" fill="#0D1117" stroke="#30363D" stroke-width="2"/><g class="hand"><line x1="50" y1="50" x2="50" y2="16" stroke="#0B1F3A" stroke-width="3" stroke-linecap="round"/></g><circle cx="50" cy="50" r="4" fill="#B1BAC4"/><text x="112" y="44" class="sans" font-size="15" font-weight="700" fill="#E6EDF3">One shared clock</text><text x="112" y="64" class="sans" font-size="13" fill="#9198A1">layers outside the active time</text><text x="112" y="82" class="sans" font-size="13" fill="#9198A1">step aside instead of pretending</text></g>
  </g>
  <rect x="1" y="1" width="1278" height="638" rx="18" fill="none" stroke="#30363D" stroke-width="2"/>
</svg>
