<?xml version="1.0" encoding="UTF-8"?>
<!-- Kansas-Frontier-Matrix — favicon (SVG, crisp at 16–512px) -->
<svg width="64" height="64" viewBox="0 0 64 64" fill="none" xmlns="http://www.w3.org/2000/svg" role="img" aria-labelledby="title desc">
  <title id="title">Kansas-Frontier-Matrix</title>
  <desc id="desc">Layered map icon with compass star, in blue–green gradient.</desc>

  <!-- BG -->
  <defs>
    <linearGradient id="g" x1="10" y1="4" x2="54" y2="60" gradientUnits="userSpaceOnUse">
      <stop offset="0"  stop-color="#0ea5e9"/>
      <stop offset="1"  stop-color="#22c55e"/>
    </linearGradient>
    <filter id="s" x="-20%" y="-20%" width="140%" height="140%">
      <feDropShadow dx="0" dy="1.2" stdDeviation="1.2" flood-color="rgba(0,0,0,0.25)"/>
    </filter>
  </defs>
  <rect x="2" y="2" width="60" height="60" rx="12" fill="url(#g)"/>

  <!-- Layer stack (hillshade/DEM/historic topo) -->
  <g stroke="#ffffff" stroke-width="2.2" stroke-linejoin="round" filter="url(#s)">
    <!-- bottom sheet -->
    <path d="M12 36l20 8 20-8-20-8-20 8z" fill="rgba(255,255,255,0.14)"/>
    <!-- middle sheet -->
    <path d="M14.5 30.5l17.5 7 17.5-7-17.5-7-17.5 7z" fill="rgba(255,255,255,0.18)"/>
    <!-- top sheet -->
    <path d="M17 25l15 6 15-6-15-6-15 6z" fill="rgba(255,255,255,0.22)"/>
  </g>

  <!-- Compass star (navigation / orientation) -->
  <g transform="translate(44,18)">
    <circle r="6.8" fill="rgba(255,255,255,0.18)" stroke="#ffffff" stroke-width="1.4"/>
    <path d="M0 -5.5 L1.2 -1.2 5.5 0 1.2 1.2 0 5.5 -1.2 1.2 -5.5 0 -1.2 -1.2Z"
          fill="#ffffff"/>
  </g>

  <!-- Subtle border -->
  <rect x="2" y="2" width="60" height="60" rx="12" fill="none" stroke="rgba(255,255,255,0.35)" stroke-width="1"/>
</svg>

